<?xml version="1.0" encoding="utf-8"?>
<!-- Generator: Adobe Illustrator 24.0.1, SVG Export Plug-In . SVG Version: 6.00 Build 0)  -->
<svg version="1.1" id="fustella" xmlns="http://www.w3.org/2000/svg" xmlns:xlink="http://www.w3.org/1999/xlink" x="0px" y="0px"
	 viewBox="0 0 279.8 153.9" style="enable-background:new 0 0 279.8 153.9;" xml:space="preserve">
<style type="text/css">
	.st0{fill:#BD9C69;}
</style>
<g>
	<path class="st0" d="M156.4,46.4c-0.1-0.1-1.3-1.2-1.3-1.2s0.5-1.5,0.6-1.6c0.1-0.2,0-0.3-0.2-0.2c-0.2,0-3.9,1-4.3,1
		c-0.3,0.1-0.4,0.2-0.5,0.4s-0.4,0.8-0.4,0.8l-3.9,0.9c-0.2-2.5-2.2-3.8-3.7-3.8c-1.9,0-2.9,1.5-2.9,1.5s-0.9-1.3-3-1.2
		s-3.3,1.8-3.3,3.6c0,1.1,0.4,1.8,1,2.6c-3.5,0.8-7.3,1.7-7.3,1.7s0.8-1.8,0.9-2c0.1-0.2-0.1-0.3-0.2-0.2c-0.2,0.1-6.5,4-6.8,4.2
		c-0.1,0.1-0.1,0.3,0,0.3c0.4,0,7.8,0.7,8,0.8c0.2,0,0.2-0.2,0.1-0.3c-0.2-0.1-1.8-1.5-1.8-1.5s4.4-1,8.1-1.9
		c0.2,0.2,0.4,0.4,0.6,0.6c1.5,1.6,0.9,3.3,0.6,4.1c-0.2,0.5-0.2,0.8,0,0.9c0.2,0.2,0.4,0.2,0.9,0c1.2-0.4,7.7-2.3,8.7-8.2l0,0
		l4.3-1c0,0,0.5,0.4,0.7,0.6c0.2,0.1,0.3,0.2,0.6,0.1c0.3-0.1,4.1-0.9,4.3-1C156.5,46.6,156.5,46.5,156.4,46.4z M144.8,48.7
		c-1.4,5.1-7.2,6.7-7.2,6.7s0.9-1.6,0.8-2.9c-0.1-1-0.5-1.8-1-2.4c1.7-0.4,3.1-0.7,3.2-0.8c0.3-0.1,0.6-0.4,0.5-0.8
		c-0.1-0.4-0.5-0.6-0.8-0.5s-2,0.5-4,0.9c-0.7-0.7-1.3-1.4-1.3-2.5c0.1-1.9,1.6-2.3,2.4-2.3c0.9,0,1.5,0.4,2.1,1
		c0.2,0.2,0.5,0.2,0.7,0c0.6-0.6,1.3-1.2,2.3-1.3C143.7,43.8,145.9,44.7,144.8,48.7z"/>
	<path class="st0" d="M138.1,38.8c0,1.4,0.9,2.5,1.4,2.9c0.2,0.2,0.4,0.1,0.6,0c0.3-0.3,1.1-1.1,1.3-3c0.2-2.2-1.3-3.6-1.3-3.6
		c0.8,3-0.4,4-0.4,4c-0.9-0.8-0.6-2.4-0.6-2.4S138.1,37.5,138.1,38.8z"/>
	<path class="st0" d="M140,20L98.6,61.4h82.8L140,20z M140,22.9l36.3,36.3h-72.7L140,22.9z"/>
	<path class="st0" d="M137.3,42.2c0.2,0,0.4,0,0.4-0.2s-0.1-0.3-0.3-0.4c-1-0.3-2-0.9-2.6-2c1,0.1,1.9,0.2,1.9,0.2s-1-1.5-1-3.3
		c0-1,0.3-1.9,0.3-2.6c0.4,0.4,1.8,2,1.8,2s0.5-1.4,0.8-2.1c0.5-1.1,1.1-1.9,1.3-2.7c1.2,1.9,1.5,3.6,1.7,4.5c0,0,0.7-0.9,1.3-1.2
		c-0.4,2,0.1,4,0.1,4s1-0.3,1.3-0.5c0,0.1-0.3,2-2.3,3.6c-0.2,0.2-0.3,0.3-0.2,0.5s0.3,0.2,0.5,0.1c3-1.7,3.8-6.2,3.8-6.2l-1.1,0.6
		c0,0-0.9,0.5-1,0.5c-0.3-2.5,1-4.6,1-4.6s-1.6,0.2-2.7,1.3c-0.8-3-3-5.1-3-5.1s0,2.2-0.9,3.6c-0.4,0.7-0.8,1.5-0.9,1.7
		c-0.5-0.5-2.4-2-2.4-2c0.2,1.2-0.1,2.4-0.3,4.1c-0.1,1.2,0.2,2.4,0.3,2.6c-0.3-0.1-1.7-0.4-2.1-0.5
		C133.6,39.6,134.4,41.6,137.3,42.2z"/>
</g>
<g>
	<g>
		<path class="st0" d="M249.6,112.6c-5-6.1-8.1-10.2-11.5-14.7c5.5-0.3,10.5-3.6,10.5-9.2c0-3.7-2.6-6.8-5.7-8.2
			c-2.5-1.1-6-1.2-9.5-1.2h-16.6c1.2,0.8,1.5,3.4,1.5,4.5v28.4c0,1-0.4,3.6-1.5,4.5H229c-1.2-0.8-1.5-3.4-1.5-4.5V97.8
			c0,0,10,12.9,12.5,16.2c3.1,4,7.3,6.1,13.1,6.1c3,0,5.6-0.1,6.7-0.3C258.1,119.6,253.6,117.5,249.6,112.6z M236.6,94.8
			c-1.7,1.4-3.9,1.8-6.1,1.8c-0.9,0-1.5,0-3,0V82.8h4.2c2.3,0,3.7,0.4,5,1.4c1.7,1.3,2.3,3.1,2.3,4.8
			C239,91.7,238.2,93.5,236.6,94.8z"/>
		<path class="st0" d="M267.8,79.4c1.8,0,2.4,0.9,2.4,2.6v30.3c0,1,0.4,3.6,1.5,4.5h-8.3c-1.8,0-2.4-0.9-2.4-2.6V83.8
			c0-1-0.4-3.6-1.5-4.5L267.8,79.4L267.8,79.4z"/>
		<path class="st0" d="M172.3,99.8c0-1.7-0.6-2.6-2.4-2.6h-8.3c1.2,0.8,1.5,3.4,1.5,4.5v10.7c-2,1.8-4.6,2.2-6.5,2.2
			c-7.3,0-10.8-8.1-10.8-15.9c0-8.7,3.1-17.3,11.8-17.3c4.4,0,6.4,2.2,7,3.2c0.6,1.1,0.8,2.8,0.5,3.7c1.6-0.8,4.2-3.6,5-5.4
			c0.2-0.5,0.3-1-0.5-1.4c-2.3-1.3-7.4-3.2-12.9-3.2c-11.9,0-21.1,7.1-21.1,20.1c0,11.3,9.3,19.5,20.4,19.5c3.4,0,7.3-0.6,10-1.7
			c2.3-0.9,4.9-2.4,6.2-3.8L172.3,99.8z"/>
		<path class="st0" d="M129.3,99.8c0-1.7-0.6-2.6-2.4-2.6h-8.3c1.2,0.8,1.5,3.4,1.5,4.5v10.7c-2,1.8-4.6,2.2-6.5,2.2
			c-7.3,0-10.8-8.1-10.8-15.9c0-8.7,3.1-17.3,11.8-17.3c4.4,0,6.4,2.2,7,3.2c0.6,1.1,0.8,2.8,0.5,3.7c1.6-0.8,4.2-3.6,5-5.4
			c0.2-0.5,0.3-1-0.5-1.4c-2.3-1.3-7.4-3.2-12.9-3.2c-11.9,0-21.1,7.1-21.1,20.1c0,11.3,9.3,19.5,20.4,19.5c3.4,0,7.3-0.6,10-1.7
			c2.3-0.9,4.9-2.4,6.2-3.8L129.3,99.8z"/>
		<path class="st0" d="M52.6,79.4c1.2,0.8,1.5,3.4,1.5,4.5v21.4c0,12.2,11.9,12.5,16.1,12.5c3.5,0,15.6-0.4,15.6-12.5V82.1
			c0-1.7-0.6-2.6-2.4-2.6h-5.9c2,1.2,3.9,4.5,3.9,10.2V105c0,7.8-6.8,9-9.4,9c-3.7,0-8.8-1.3-8.8-9.2V82.1c0-1.7-0.6-2.6-2.4-2.6
			h-8.2V79.4z"/>
		<path class="st0" d="M209.1,116.7c0.5,0,0.7-0.2,0.8-0.6c0.2-1.3,0.3-5.3,0-7.9c-0.4,1-1.1,2.5-2.8,3.7c-1,0.7-3,1.4-7.8,1.4
			c-1.2,0-8,0-9,0V98.6c3.3,0,5.5,0,5.7,0c1,0,3.7,0.3,4.5,1.5c0.1-0.7,0.1-5.7,0-6.3c-0.8,1.1-3.5,1.5-4.5,1.5c-0.3,0-2.7,0-5.6,0
			V82.8c0,0,9.9,0,10.7,0.1c1.5,0.1,2.7,0.3,4,1c0.9,0.5,1.9,1.7,2.3,2.5c0.2-1.3,0.2-4.9,0-6.4c0-0.3-0.3-0.5-0.7-0.5h-27.1
			c1.2,0.8,1.5,3.4,1.5,4.5v28.4c0,1-0.4,3.6-1.5,4.5L209.1,116.7z"/>
		<path class="st0" d="M44.5,112.2c-5.6-6.8-9-11.4-12.7-16.3c6.1-0.3,11.7-4,11.7-10.2c0-4.1-2.9-7.5-6.4-9.1
			c-2.8-1.2-6.7-1.4-10.6-1.4H8.1c1.3,0.9,1.7,3.8,1.7,5v31.6c0,1.2-0.4,4-1.7,5h13.6c-1.3-0.9-1.7-3.8-1.7-5v-16
			c0,0,11.1,14.4,13.9,18c3.4,4.4,8.1,6.7,14.6,6.8c3.3,0,6.3-0.1,7.5-0.3C54.1,119.9,49,117.6,44.5,112.2z M30.1,92.4
			c-1.9,1.5-4.3,2-6.8,2c-1,0-1.7,0-3.3,0V79h4.7c2.5,0,4.1,0.5,5.5,1.6c1.9,1.4,2.5,3.4,2.5,5.4C32.8,88.9,31.8,90.9,30.1,92.4z"/>
	</g>
	<g>
		<path class="st0" d="M48.4,136.2c-0.5-1.3-0.7-1.4-1.9-1.4v-0.5h5.7v0.5c-1.5,0-1.8,0.4-1.8,0.8c0,0.2,0.1,0.6,0.3,1.1l2.8,6.9
			l2.7-6.6c0.3-0.8,0.4-1.2,0.4-1.4c0-0.6-0.5-0.8-1.7-0.8v-0.5h4.5v0.5c-1.3,0-1.6,0.7-2.2,2.1l-3.9,9.3h-1.1L48.4,136.2z"/>
		<path class="st0" d="M60.1,145.4c1.2,0,1.5-0.2,2-1.7l3.4-9.2l-0.1-0.5h2.1l3.6,9.7c0.5,1.5,0.7,1.7,1.9,1.7v0.5h-5.5v-0.5
			c1.5,0,1.9-0.1,1.9-0.7c0-0.2-0.1-0.5-0.3-1l-0.9-2.3h-4.3l-0.9,2.5c-0.1,0.4-0.2,0.6-0.2,0.8c0,0.5,0.4,0.8,1.9,0.7v0.5h-4.5
			L60.1,145.4L60.1,145.4z M67.8,140.5l-1.8-4.7l-1.8,4.7H67.8z"/>
		<path class="st0" d="M75.4,145.9v-0.5c1.5,0,1.8-0.1,1.8-1.6v-7.4c0-1.3-0.1-1.6-1.8-1.6v-0.5h6.1v0.5c-2,0-2.2,0.1-2.2,1.5v7.9
			c0,0.8,0.1,0.9,1,0.9h1.9c1.6,0,1.7-0.1,3.1-2h0.6l-1.4,2.8L75.4,145.9L75.4,145.9z"/>
		<path class="st0" d="M89.7,136.4c0-1.4-0.4-1.7-1.8-1.6v-0.5c0.5,0,2.1-0.1,2.9-0.1c1,0,2,0,2.7,0c2.8,0,4.8,0.5,6,1.6
			c1.2,1.2,1.6,2.6,1.6,4c0,2.7-1.9,6.1-7.4,6.1h-5.8v-0.5c1.6,0,1.8-0.3,1.8-1.5C89.7,143.9,89.7,136.4,89.7,136.4z M91.8,144
			c0,1.2,0.2,1.3,1.4,1.3c2.2,0,3.4-0.5,4.2-1.3c1.1-1.1,1.5-2.7,1.5-4s-0.3-2.8-1.4-4c-0.9-0.9-2.1-1.4-4.3-1.4c-0.3,0-0.9,0-1.4,0
			C91.8,134.6,91.8,144,91.8,144z"/>
		<path class="st0" d="M111.7,134c4,0,6.8,2.4,6.8,5.9c0,3.4-2.7,6.3-6.9,6.3c-3.9,0-6.7-2.4-6.7-5.8
			C104.9,136.7,107.7,134,111.7,134z M111.9,145.6c2.6,0,4.3-2.1,4.3-5.2c0-3.4-2-5.8-4.7-5.8s-4.4,2-4.4,5.3
			C107.1,143.6,109.5,145.6,111.9,145.6z"/>
		<path class="st0" d="M123.7,136.7c0-1.2-0.1-1.9-1.4-1.9h-0.6v-0.5c0.6,0,1.7,0,2.6-0.1c0.7,0,1.8-0.1,2.5-0.1
			c3.2,0,5.3,0.6,5.3,2.7c0,1.2-0.8,2.1-2.2,2.4l0,0c1.8,0.5,2.9,1.6,2.9,3.1c0,1.9-1.5,3.5-4.7,3.5h-6.3v-0.5c1.6,0,2-0.3,2-1.3
			L123.7,136.7L123.7,136.7z M125.8,139.1h1.4c1.8,0,2.7-0.7,2.7-2c0-1.4-0.8-2.4-2.9-2.4c-0.4,0-0.7,0-1.1,0.1v4.3H125.8z
			 M125.8,143.2c0,1.4,0.4,2,1.9,2c1.6,0,2.7-1.1,2.7-2.8c0-1.9-1.3-2.8-3.6-2.8h-1C125.8,139.6,125.8,143.2,125.8,143.2z"/>
		<path class="st0" d="M138.1,136.7c0-1.2-0.1-1.9-1.4-1.9H136v-0.5c0.6,0,1.7,0,2.6-0.1c0.7,0,1.8-0.1,2.5-0.1
			c3.2,0,5.3,0.6,5.3,2.7c0,1.2-0.8,2.1-2.2,2.4l0,0c1.8,0.5,2.9,1.6,2.9,3.1c0,1.9-1.5,3.5-4.7,3.5H136v-0.5c1.6,0,2-0.3,2-1.3
			v-7.3H138.1z M140.2,139.1h1.4c1.8,0,2.7-0.7,2.7-2c0-1.4-0.8-2.4-2.9-2.4c-0.4,0-0.7,0-1.1,0.1L140.2,139.1L140.2,139.1z
			 M140.2,143.2c0,1.4,0.4,2,1.9,2c1.6,0,2.7-1.1,2.7-2.8c0-1.9-1.3-2.8-3.6-2.8h-1L140.2,143.2L140.2,143.2z"/>
		<path class="st0" d="M151,134.3h5.2v0.5c-1.2,0-1.6,0.3-1.6,1.6v7.2c0,1.4,0.3,1.8,1.6,1.7v0.5H151v-0.5c1.5,0,1.5-0.5,1.5-1.6
			v-7.6c0-1-0.2-1.4-1.5-1.4V134.3z"/>
		<path class="st0" d="M176.1,136.4c0-1.4-0.4-1.7-1.8-1.6v-0.5c0.5,0,2.1-0.1,2.9-0.1c1,0,2,0,2.7,0c2.8,0,4.8,0.5,6,1.6
			c1.2,1.2,1.6,2.6,1.6,4c0,2.7-1.9,6.1-7.4,6.1h-5.8v-0.5c1.6,0,1.8-0.3,1.8-1.5V136.4z M178.2,144c0,1.2,0.2,1.3,1.4,1.3
			c2.2,0,3.4-0.5,4.2-1.3c1.1-1.1,1.5-2.7,1.5-4s-0.3-2.8-1.4-4c-0.9-0.9-2.1-1.4-4.3-1.4c-0.3,0-0.9,0-1.4,0V144z"/>
		<path class="st0" d="M190.8,145.9v-0.5c1.5,0,1.9-0.2,1.9-1.3v-8c0-1.2-0.6-1.3-1.9-1.3v-0.5h9.5l0.2,2.8H200l-0.1-0.4
			c-0.4-1.5-0.7-1.6-1.9-1.6h-3.3v4.3h2.9c1.1,0,1.3-0.1,1.4-1.4h0.5v3.7H199c-0.1-1.3-0.4-1.5-1.4-1.5h-2.9v3.4
			c0,1.2,0.1,1.3,1.1,1.3h2.1c1.9,0,2.3-0.3,2.8-2.1h0.5l-0.3,2.9h-10.1V145.9z"/>
		<path class="st0" d="M207.8,136.4v7.2c0,1.5,0.2,1.9,1.9,1.8v0.5h-4.5v-0.5c1.3,0,1.6-0.4,1.6-1.6v-8.4c-0.4-0.4-0.9-0.5-1.6-0.6
			v-0.5h3.4l8.3,8.8v-6.7c0-1.4-0.2-1.6-1.8-1.6v-0.5h4.5v0.5c-1.2,0-1.6,0.2-1.6,1.6v9.6h-1L207.8,136.4z"/>
		<path class="st0" d="M222.6,145.9v-0.5c1.5,0,1.9-0.2,1.9-1.3v-8c0-1.2-0.6-1.3-1.9-1.3v-0.5h9.5l0.2,2.8h-0.5l-0.1-0.4
			c-0.4-1.5-0.7-1.6-1.9-1.6h-3.3v4.3h2.9c1.1,0,1.3-0.1,1.4-1.4h0.5v3.7h-0.5c-0.1-1.3-0.4-1.5-1.4-1.5h-2.9v3.4
			c0,1.2,0.1,1.3,1.1,1.3h2.1c1.9,0,2.3-0.3,2.8-2.1h0.5l-0.3,2.9h-10.1V145.9z"/>
		<path class="st0" d="M158.9,145.4c1.2,0,1.5-0.2,2-1.7l3.4-9.2l-0.1-0.5h2.1l3.6,9.7c0.5,1.5,0.7,1.7,1.9,1.7v0.5h-5.5v-0.5
			c1.5,0,1.9-0.1,1.9-0.7c0-0.2-0.1-0.5-0.3-1l-0.9-2.3h-4.3l-0.9,2.5c-0.1,0.4-0.2,0.6-0.2,0.8c0,0.5,0.4,0.8,1.9,0.7v0.5H159
			L158.9,145.4L158.9,145.4z M166.6,140.5l-1.8-4.7l-1.8,4.7H166.6z"/>
	</g>
	<path class="st0" d="M184.1,52.3v7.9c0,0.3-0.1,1-0.4,1.2h2c-0.3-0.2-0.4-0.9-0.4-1.2v-5.9l6.4,7c0.1,0.1,0.2,0.2,0.6,0.2h1.8
		c-0.3-0.2-0.4-0.9-0.4-1.2v-8.4c0-0.5-0.2-0.7-0.7-0.7h-1.6c0.6,0.3,1.1,1.2,1.1,2.8v4.3l-6.4-7c-0.1-0.1-0.2-0.2-0.6-0.2h-1.8
		C184,51.3,184.1,52,184.1,52.3"/>
	<path class="st0" d="M144.7,16.6c-1.4-1.7-2.2-2.8-3.2-4.1c1.5-0.1,2.9-1,2.9-2.6c0-1-0.7-1.9-1.6-2.3c-0.7-0.3-1.7-0.3-2.6-0.3
		h-4.6c0.3,0.2,0.4,1,0.4,1.2v7.9c0,0.3-0.1,1-0.4,1.2h3.4c-0.3-0.2-0.4-1-0.4-1.2v-4c0,0,2.8,3.6,3.5,4.5c0.9,1.1,2,1.7,3.6,1.7
		c0.8,0,1.6,0,1.9-0.1C147,18.5,145.8,18,144.7,16.6z M141,11.7c-0.5,0.4-1.1,0.5-1.7,0.5c-0.3,0-0.4,0-0.8,0V8.3h1.2
		c0.6,0,1,0.1,1.4,0.4c0.5,0.4,0.6,0.9,0.6,1.3C141.7,10.8,141.5,11.3,141,11.7z"/>
	<path class="st0" d="M94.7,60.3c-1.4-1.7-2.2-2.8-3.2-4.1c1.5-0.1,2.9-1,2.9-2.6c0-1-0.7-1.9-1.6-2.3C92.1,51,91.1,51,90.2,51h-4.6
		c0.3,0.2,0.4,1,0.4,1.2v7.9c0,0.3-0.1,1-0.4,1.2H89c-0.3-0.2-0.4-1-0.4-1.2v-4c0,0,2.8,3.6,3.5,4.5c0.9,1.1,2,1.7,3.6,1.7
		c0.8,0,1.6,0,1.9-0.1C97.1,62.2,95.9,61.6,94.7,60.3z M91.1,55.3c-0.5,0.4-1.1,0.5-1.7,0.5c-0.3,0-0.4,0-0.8,0V52h1.2
		c0.6,0,1,0.1,1.4,0.4c0.5,0.4,0.6,0.9,0.6,1.3C91.8,54.5,91.6,55,91.1,55.3z"/>
</g>
</svg>
