<?xml version="1.0" encoding="utf-8"?>
<!-- Generator: Adobe Illustrator 24.0.1, SVG Export Plug-In . SVG Version: 6.00 Build 0)  -->
<svg version="1.1" id="Livello_1" xmlns="http://www.w3.org/2000/svg" xmlns:xlink="http://www.w3.org/1999/xlink" x="0px" y="0px"
	 viewBox="0 0 155.2 227" style="enable-background:new 0 0 155.2 227;" xml:space="preserve">
<style type="text/css">
	.st0{fill:none;stroke:#BD9C69;stroke-width:2;stroke-miterlimit:10;}
</style>
<path class="st0" d="M154.2,63.1L102.7,1H22.4C10.6,1,1,10.6,1,22.4v182.2c0,11.8,9.6,21.4,21.4,21.4h110.5
	c11.8,0,21.4-9.6,21.4-21.4V63.1z"/>
<path class="st0" d="M102.7,1v46c0,8.9,7.2,16.1,16.1,16.1h35.4"/>
<line class="st0" x1="55.2" y1="1" x2="55.2" y2="128.5"/>
<circle class="st0" cx="55.2" cy="147" r="18.5"/>
<line class="st0" x1="55.2" y1="12.1" x2="42.6" y2="12.1"/>
<line class="st0" x1="55.2" y1="29" x2="42.6" y2="29"/>
<line class="st0" x1="55.2" y1="45.9" x2="42.6" y2="45.9"/>
<line class="st0" x1="55.2" y1="62.8" x2="42.6" y2="62.8"/>
<line class="st0" x1="55.2" y1="79.7" x2="42.6" y2="79.7"/>
<line class="st0" x1="55.2" y1="96.6" x2="42.6" y2="96.6"/>
<line class="st0" x1="67.7" y1="20.8" x2="55.2" y2="20.8"/>
<line class="st0" x1="67.7" y1="37.7" x2="55.2" y2="37.7"/>
<line class="st0" x1="67.7" y1="54.6" x2="55.2" y2="54.6"/>
<line class="st0" x1="67.7" y1="71.6" x2="55.2" y2="71.6"/>
<line class="st0" x1="67.7" y1="88.5" x2="55.2" y2="88.5"/>
<line class="st0" x1="67.7" y1="105.4" x2="55.2" y2="105.4"/>
<line class="st0" x1="55.2" y1="113.5" x2="42.6" y2="113.5"/>
</svg>
